<svg width="21" height="20" viewBox="0 0 21 20" fill="none" xmlns="http://www.w3.org/2000/svg">
<path d="M13.5318 14.2139L15.254 12.491C15.486 12.2618 15.7794 12.1049 16.0988 12.0394C16.4182 11.9739 16.7497 12.0025 17.0531 12.1218L19.152 12.9602C19.4586 13.0847 19.7215 13.2972 19.9076 13.5709C20.0937 13.8447 20.1946 14.1674 20.1976 14.4985V18.3442C20.1958 18.5694 20.1485 18.7919 20.0585 18.9983C19.9685 19.2047 19.8377 19.3908 19.6739 19.5453C19.5101 19.6998 19.3168 19.8195 19.1056 19.8973C18.8943 19.9751 18.6695 20.0093 18.4447 19.9979C3.73683 19.0826 0.769122 6.62239 0.207871 1.85368C0.181817 1.6195 0.205622 1.38246 0.277718 1.15814C0.349815 0.933831 0.468569 0.727331 0.62617 0.55223C0.78377 0.377128 0.976644 0.237394 1.1921 0.142219C1.40756 0.0470438 1.64072 -0.00141458 1.87625 3.14343e-05H5.58973C5.92111 0.0010127 6.24461 0.101149 6.51863 0.287561C6.79266 0.473973 7.00467 0.738135 7.1274 1.04607L7.96544 3.14584C8.08864 3.44817 8.12008 3.78011 8.05581 4.10021C7.99155 4.4203 7.83443 4.71436 7.60408 4.94565L5.88189 6.66854C5.88189 6.66854 6.87369 13.3832 13.5318 14.2139Z" fill="white"/>
</svg>
