<svg width="157" height="60" fill="none" xmlns="http://www.w3.org/2000/svg"><path d="M68.573 38.586h-2.74v-11.97h2.576v1.958c.547-.834 1.166-1.44 1.856-1.819.698-.387 1.52-.58 2.462-.58.934 0 1.709.197 2.323.593.615.387 1.082.98 1.402 1.78.63-.825 1.3-1.426 2.007-1.805.716-.379 1.528-.568 2.437-.568.791 0 1.481.147 2.07.441.59.287 1.049.708 1.377 1.263.151.261.26.572.328.934.076.362.114.88.114 1.553v8.22h-2.74v-6.149c0-1.608-.173-2.664-.518-3.169-.336-.513-.942-.77-1.818-.77-1.077 0-1.847.345-2.31 1.035-.455.682-.682 1.881-.682 3.599v5.454h-2.765v-6.149c0-1.481-.181-2.508-.543-3.08-.354-.573-.968-.86-1.844-.86-.538 0-1.03.123-1.477.367-.446.244-.8.58-1.06 1.01a2.87 2.87 0 00-.354 1.023c-.067.404-.101 1.149-.101 2.235v5.454zm31.148 0h-2.74v-1.553c-.488.69-1.06 1.204-1.717 1.54-.648.337-1.393.505-2.234.505-1.692 0-3.026-.576-4.003-1.73-.968-1.16-1.452-2.748-1.452-4.76 0-1.91.497-3.45 1.49-4.62.993-1.179 2.29-1.768 3.889-1.768.976 0 1.81.206 2.5.619a3.546 3.546 0 011.528 1.755v-1.958h2.74v11.97zm-2.664-6.023c0-1.237-.29-2.2-.87-2.891-.573-.69-1.377-1.035-2.412-1.035-1.036 0-1.852.357-2.45 1.073-.59.707-.884 1.692-.884 2.954 0 1.271.287 2.252.859 2.942.572.69 1.38 1.036 2.424 1.036.985 0 1.784-.375 2.399-1.124.623-.75.934-1.734.934-2.955zm15.051 0c0-1.237-.291-2.2-.872-2.891-.572-.69-1.376-1.035-2.411-1.035-1.036 0-1.852.357-2.45 1.073-.589.707-.883 1.692-.883 2.954 0 1.271.286 2.252.858 2.942.572.69 1.381 1.036 2.424 1.036.985 0 1.785-.375 2.399-1.124.623-.75.935-1.734.935-2.955zm2.664 5.278c0 2.34-.468 3.986-1.402 4.937-.934.96-2.508 1.44-4.722 1.44-1.65 0-2.967-.35-3.952-1.049-.985-.69-1.486-1.612-1.502-2.765l2.941-.013c.043.514.282.905.72 1.175s1.052.404 1.844.404c1.17 0 2.011-.257 2.525-.77.513-.514.774-1.372.783-2.576l.025-1.591c-.488.69-1.061 1.204-1.717 1.54-.648.337-1.393.505-2.235.505-1.692 0-3.026-.576-4.003-1.73-.968-1.16-1.452-2.748-1.452-4.76 0-1.91.497-3.45 1.49-4.62.994-1.179 2.29-1.768 3.889-1.768.977 0 1.81.206 2.5.619a3.545 3.545 0 011.528 1.755v-1.958h2.74v11.225zm15.239 1.465l-2.765-6.225c-.21-.48-.383-.905-.517-1.275a25.22 25.22 0 01-.367-1.111 73.415 73.415 0 01-.492 1.414c-.143.387-.257.677-.341.871l-2.841 6.326-6.199-12.69h2.916l2.69 5.77a5.9 5.9 0 01.315 1.01c.11.422.202.889.278 1.402.009-.303.059-.619.152-.947.092-.328.248-.732.467-1.212l2.929-6.464h.227l2.98 6.464c.185.404.32.779.404 1.124.093.345.147.69.164 1.035.076-.454.173-.884.291-1.288s.252-.77.404-1.098l2.639-5.796h2.891l-6.225 12.69zm19.204-.72h-2.739v-1.553c-.489.69-1.061 1.204-1.718 1.54-.648.337-1.393.505-2.234.505-1.692 0-3.026-.576-4.003-1.73-.968-1.16-1.452-2.748-1.452-4.76 0-1.91.497-3.45 1.49-4.62.993-1.179 2.29-1.768 3.889-1.768.976 0 1.81.206 2.5.619a3.545 3.545 0 011.528 1.755v-1.958h2.739v11.97zm-2.664-6.023c0-1.237-.29-2.2-.871-2.891-.572-.69-1.376-1.035-2.411-1.035-1.036 0-1.852.357-2.45 1.073-.589.707-.884 1.692-.884 2.954 0 1.271.287 2.252.859 2.942.572.69 1.38 1.036 2.424 1.036.985 0 1.785-.375 2.399-1.124.623-.75.934-1.734.934-2.955zm6.212-11.123c0-.463.169-.863.505-1.2a1.698 1.698 0 011.225-.505c.488 0 .892.165 1.212.493.329.32.493.724.493 1.212s-.164.9-.493 1.237a1.646 1.646 0 01-1.212.493 1.7 1.7 0 01-1.225-.505 1.698 1.698 0 01-.505-1.225zm.367 17.146v-11.97h2.739v11.97h-2.739z" fill="#fff"/><path d="M18.577 11.77s-7.635.056-8.337.138c-1.35.155-4.345.816-5.579 3.288-1.68 3.368 1.483 8.14 1.483 8.14l3.976 6.358" stroke="#BFECFF" stroke-width="1.5" stroke-linecap="round"/><path d="M14.17 48.126a2.115 2.115 0 00-2.242-3.587l-1.196.748a2.115 2.115 0 002.242 3.586l1.195-.747zm8.865-16.625a2.115 2.115 0 00-2.241-3.586L9.236 35.139a2.115 2.115 0 102.241 3.586l11.558-7.224zm4.15 8.491a2.115 2.115 0 00-2.242-3.586l-6.604 4.128a2.115 2.115 0 102.241 3.586l6.605-4.127zm24.346-10.779a1.645 1.645 0 10-1.743-2.79 1.645 1.645 0 001.743 2.79z" fill="#fff"/><path fill-rule="evenodd" clip-rule="evenodd" d="M41.967 35.374c-1.173 2.373-2.517 5.099-3.722 7.543-1.69 3.426-3.106 6.3-3.4 6.88-1.118 2.223-2.207 2.974-3.521 2.844-1.018-.092-2.361-1.372-2.45-3.92-.09-2.549-.396-9.53-5.759-6.178-.092-.148-.137-.376-.186-.622-.057-.29-.12-.606-.27-.847-1.25-2.002-6.398-10.32-6.024-10.554.373-.233 2.098-1.834 1.016-3.673-.932-1.583-2.457-2.488-4.107-3.467a74.869 74.869 0 01-.808-.484c-2.504-1.606-3.084-2.85-2.499-4.513.743-1.568 3.192-1.563 4.195-1.53.982.032 8.48.07 15.99.083l-4.893 13.42a3.556 3.556 0 00.076 2.41 3.394 3.394 0 002.194 1.222l14.165 1.383.003.003zm-5.875-18.435a2.12 2.12 0 00-1.555 1.293c-1.723 3.93-2.204 5.181-2.889 6.962-.154.402-.319.83-.51 1.322l-.099.277c-.294.823-.838 2.341-.46 2.944.323.518 1.05.592 2.432.733a559.067 559.067 0 009.758.933 2.432 2.432 0 001.54-.756l.365-.728 3.582-7.129.037-.074c.73-1.45 2.969-5.893-3.717-5.813-1.913.024-4.999.034-8.484.036z" fill="#fff"/><path d="M54.359 22.087s2.462-3.857.497-7.068c-1.965-3.21-7.564-3.259-7.564-3.259l-20.818.112" stroke="#FE60B7" stroke-width="1.5" stroke-linecap="round"/><path d="M21.782 48.676s4.108 6.613 4.31 6.898c.564.794 2.934 3.76 6.108 3.456 3.747-.359 6.12-5.569 6.12-5.569l9.858-19.737" stroke="#A072FD" stroke-width="1.5" stroke-linecap="round"/></svg>