<svg xmlns="http://www.w3.org/2000/svg" xmlns:xlink="http://www.w3.org/1999/xlink"><symbol id="icon-open"><path d="M.083 1.744c0-.71.688-1.286 1.534-1.286h12.349c.407 0 .797.136 1.085.377.287.24.449.568.449.909 0 .34-.162.667-.45.908a1.696 1.696 0 01-1.084.377H1.617C.77 3.029.083 2.454.083 1.744zm0 7.756c0-.71.688-1.285 1.534-1.285h27.765c.407 0 .797.135 1.085.376.288.241.45.568.45.909 0 .34-.162.668-.45.909a1.696 1.696 0 01-1.084.376H1.617C.77 10.785.083 10.21.083 9.5zm1.534 6.471c-.407 0-.797.136-1.085.377-.287.24-.449.567-.449.908 0 .341.162.668.45.91.287.24.677.375 1.084.375h18.515c.202 0 .401-.033.588-.097a1.59 1.59 0 00.497-.279c.143-.12.256-.26.333-.417a1.107 1.107 0 000-.984 1.296 1.296 0 00-.333-.416 1.582 1.582 0 00-.497-.28 1.795 1.795 0 00-.587-.097H1.617z"/></symbol><symbol id="icon-phone"><path d="M13.532 14.214l1.722-1.723a1.683 1.683 0 011.8-.37l2.098.84a1.677 1.677 0 011.046 1.537v3.846a1.67 1.67 0 01-1.753 1.654C3.737 19.083.769 6.622.208 1.854A1.67 1.67 0 011.876 0H5.59a1.66 1.66 0 011.537 1.046l.838 2.1a1.662 1.662 0 01-.36 1.8L5.881 6.669s.992 6.714 7.65 7.545z"/></symbol></svg>