<svg width="31" height="19" fill="none" xmlns="http://www.w3.org/2000/svg"><path d="M.083 1.744c0-.71.688-1.286 1.534-1.286h12.349c.407 0 .797.136 1.085.377.287.24.449.568.449.909 0 .34-.162.667-.45.908a1.696 1.696 0 01-1.084.377H1.617C.77 3.029.083 2.454.083 1.744zm0 7.756c0-.71.688-1.285 1.534-1.285h27.765c.407 0 .797.135 1.085.376.288.241.45.568.45.909 0 .34-.162.668-.45.909a1.696 1.696 0 01-1.084.376H1.617C.77 10.785.083 10.21.083 9.5zm1.534 6.471c-.407 0-.797.136-1.085.377-.287.24-.449.567-.449.908 0 .341.162.668.45.91.287.24.677.375 1.084.375h18.515c.202 0 .401-.033.588-.097a1.59 1.59 0 00.497-.279c.143-.12.256-.26.333-.417a1.107 1.107 0 000-.984 1.296 1.296 0 00-.333-.416 1.582 1.582 0 00-.497-.28 1.795 1.795 0 00-.587-.097H1.617z"/></svg>