<svg width="100" height="39" fill="none" xmlns="http://www.w3.org/2000/svg"><path d="M43.902 24.703h-1.755V17.04h1.65v1.253c.35-.533.746-.921 1.188-1.164.447-.248.972-.372 1.576-.372.598 0 1.094.127 1.487.38.394.248.693.628.898 1.14.404-.528.832-.914 1.285-1.156a3.288 3.288 0 011.56-.364c.507 0 .948.095 1.326.283.377.183.67.453.88.809.098.167.168.366.21.598.05.231.074.563.074.994v5.262h-1.755v-3.936c0-1.03-.11-1.706-.33-2.03-.216-.328-.604-.492-1.165-.492-.69 0-1.183.22-1.48.662-.29.437-.436 1.205-.436 2.304v3.492h-1.77v-3.936c0-.949-.116-1.606-.347-1.973-.227-.366-.62-.55-1.18-.55-.346 0-.66.079-.946.235a1.78 1.78 0 00-.68.647 1.837 1.837 0 00-.226.654c-.043.26-.064.736-.064 1.431v3.492zm19.941 0H62.09v-.994c-.312.442-.679.77-1.1.986-.414.216-.891.323-1.43.323-1.083 0-1.937-.369-2.562-1.107-.62-.744-.93-1.76-.93-3.047 0-1.224.318-2.21.954-2.959.636-.754 1.466-1.132 2.49-1.132.625 0 1.158.133 1.6.396.447.26.773.634.978 1.124V17.04h1.754v7.663zm-1.705-3.855c0-.793-.186-1.41-.558-1.852-.367-.441-.881-.662-1.544-.662s-1.186.229-1.568.687c-.377.452-.566 1.083-.566 1.891 0 .814.183 1.442.55 1.884.366.442.883.662 1.552.662.63 0 1.142-.24 1.535-.719.4-.48.599-1.11.599-1.892zm9.635 0c0-.793-.186-1.41-.558-1.852-.366-.441-.88-.662-1.544-.662-.663 0-1.185.229-1.568.687-.377.452-.566 1.083-.566 1.891 0 .814.184 1.442.55 1.884.366.442.884.662 1.552.662.63 0 1.142-.24 1.536-.719.399-.48.598-1.11.598-1.892zm1.706 3.378c0 1.498-.3 2.552-.898 3.16-.598.615-1.606.922-3.023.922-1.056 0-1.9-.223-2.53-.67-.63-.442-.951-1.033-.962-1.77l1.884-.009c.026.329.18.58.46.752.28.172.674.259 1.18.259.75 0 1.288-.165 1.617-.494.329-.328.496-.878.501-1.649l.017-1.018c-.313.442-.68.77-1.1.986-.415.216-.892.323-1.43.323-1.084 0-1.938-.369-2.563-1.107-.62-.744-.93-1.76-.93-3.047 0-1.224.318-2.21.954-2.959.636-.754 1.466-1.132 2.49-1.132.625 0 1.159.133 1.6.396.448.26.774.634.979 1.124V17.04h1.754v7.186zm9.756.938l-1.77-3.985c-.135-.307-.245-.58-.331-.816-.087-.243-.165-.48-.235-.712-.118.35-.224.652-.315.905a11.54 11.54 0 01-.218.558l-1.82 4.05-3.968-8.124h1.867l1.722 3.694c.07.157.137.372.202.647.07.27.13.569.178.897a2.48 2.48 0 01.097-.606c.06-.21.159-.469.299-.776l1.875-4.139h.146l1.907 4.139c.119.259.205.498.26.72.058.22.094.441.104.662.049-.29.11-.566.186-.824a5.17 5.17 0 01.259-.704l1.69-3.71h1.85l-3.985 8.124zm12.295-.461h-1.754v-.994c-.313.442-.68.77-1.1.986-.414.216-.891.323-1.43.323-1.083 0-1.938-.369-2.563-1.107-.62-.744-.93-1.76-.93-3.047 0-1.224.319-2.21.955-2.959.636-.754 1.466-1.132 2.49-1.132.625 0 1.158.133 1.6.396.447.26.773.634.978 1.124V17.04h1.754v7.663zm-1.706-3.855c0-.793-.186-1.41-.557-1.852-.367-.441-.881-.662-1.544-.662s-1.186.229-1.568.687c-.378.452-.566 1.083-.566 1.891 0 .814.183 1.442.55 1.884.366.442.883.662 1.551.662.63 0 1.143-.24 1.536-.719.4-.48.598-1.11.598-1.892zm3.978-7.122c0-.296.107-.552.323-.768.22-.216.482-.323.784-.323.312 0 .571.105.776.315.21.205.315.464.315.776 0 .313-.105.577-.315.792-.21.21-.469.315-.776.315-.302 0-.563-.107-.784-.323a1.085 1.085 0 01-.323-.784zm.234 10.977V17.04h1.754v7.663h-1.754z" fill="#fff"/><path d="M11.893 7.535s-4.888.036-5.337.089c-.864.099-2.782.522-3.572 2.104-1.075 2.157.95 5.212.95 5.212l2.545 4.07" stroke="#BFECFF" stroke-width="1.5" stroke-linecap="round"/><path d="M9.071 30.811a1.354 1.354 0 00-1.435-2.296l-.765.478a1.354 1.354 0 101.435 2.297l.765-.479zm5.677-10.643a1.354 1.354 0 00-1.436-2.297l-7.4 4.625a1.354 1.354 0 101.436 2.296l7.4-4.625zm2.656 5.436a1.354 1.354 0 10-1.435-2.296L11.74 25.95a1.354 1.354 0 001.435 2.296l4.229-2.643zm15.586-6.901a1.053 1.053 0 10-1.115-1.787 1.053 1.053 0 001.116 1.787z" fill="#fff"/><path fill-rule="evenodd" clip-rule="evenodd" d="M26.868 22.647l-2.383 4.83a1268.233 1268.233 0 01-2.176 4.404c-.716 1.423-1.414 1.904-2.255 1.82-.652-.058-1.511-.877-1.569-2.51-.057-1.63-.253-6.1-3.686-3.954-.06-.095-.088-.24-.12-.398-.036-.186-.076-.388-.172-.542-.8-1.282-4.096-6.608-3.857-6.757.24-.15 1.344-1.174.65-2.352-.596-1.013-1.573-1.593-2.629-2.22-.17-.1-.343-.204-.517-.31-1.603-1.028-1.975-1.823-1.6-2.889.476-1.004 2.044-1 2.686-.98.629.021 5.428.046 10.236.054l-3.132 8.592a2.276 2.276 0 00.049 1.543c.35.43.853.71 1.404.782l9.069.885.002.002zm-3.761-11.802a1.357 1.357 0 00-.996.828c-1.103 2.516-1.41 3.317-1.85 4.457l-.326.846-.063.177c-.189.527-.537 1.5-.295 1.886.207.331.672.378 1.557.469l.41.042c2.419.26 5.837.555 5.837.555a1.557 1.557 0 00.987-.484l.233-.466 2.293-4.564.024-.048c.468-.928 1.9-3.772-2.38-3.72-1.224.014-3.2.02-5.431.022z" fill="#fff"/><path d="M34.801 14.14s1.577-2.469.319-4.524c-1.258-2.056-4.842-2.087-4.842-2.087l-13.328.072" stroke="#FE60B7" stroke-width="1.5" stroke-linecap="round"/><path d="M13.945 31.163s2.63 4.234 2.76 4.416c.36.51 1.878 2.407 3.91 2.213 2.399-.23 3.918-3.565 3.918-3.565l6.311-12.636" stroke="#A072FD" stroke-width="1.5" stroke-linecap="round"/></svg>