<svg width="38" height="39" fill="none" xmlns="http://www.w3.org/2000/svg"><path d="M11.893 7.535s-4.888.036-5.337.089c-.864.099-2.782.522-3.572 2.104-1.075 2.157.95 5.212.95 5.212l2.545 4.07" stroke="#BFECFF" stroke-width="1.5" stroke-linecap="round"/><path d="M9.071 30.811a1.354 1.354 0 00-1.435-2.296l-.765.478a1.354 1.354 0 101.435 2.297l.765-.479zm5.677-10.643a1.354 1.354 0 00-1.436-2.297l-7.4 4.625a1.354 1.354 0 101.436 2.296l7.4-4.625zm2.656 5.436a1.354 1.354 0 10-1.435-2.296L11.74 25.95a1.354 1.354 0 001.435 2.296l4.229-2.643zm15.586-6.901a1.053 1.053 0 10-1.115-1.787 1.053 1.053 0 001.116 1.787z" fill="#fff"/><path fill-rule="evenodd" clip-rule="evenodd" d="M26.868 22.647l-2.383 4.83a1268.233 1268.233 0 01-2.176 4.404c-.716 1.423-1.414 1.904-2.255 1.82-.652-.058-1.511-.877-1.569-2.51-.057-1.63-.253-6.1-3.686-3.954-.06-.095-.088-.24-.12-.398-.036-.186-.076-.388-.172-.542-.8-1.282-4.096-6.608-3.857-6.757.24-.15 1.344-1.174.65-2.352-.596-1.013-1.573-1.593-2.629-2.22-.17-.1-.343-.204-.517-.31-1.603-1.028-1.975-1.823-1.6-2.889.476-1.004 2.044-1 2.686-.98.629.021 5.428.046 10.236.054l-3.132 8.592a2.276 2.276 0 00.049 1.543c.35.43.853.71 1.404.782l9.069.885.002.002zm-3.761-11.802a1.357 1.357 0 00-.996.828c-1.103 2.516-1.41 3.317-1.85 4.457l-.326.846-.063.177c-.189.527-.537 1.5-.295 1.886.207.331.672.378 1.557.469l.41.042c2.419.26 5.837.555 5.837.555a1.557 1.557 0 00.987-.484l.233-.466 2.293-4.564.024-.048c.468-.928 1.9-3.772-2.38-3.72-1.224.014-3.2.02-5.431.022z" fill="#fff"/><path d="M34.801 14.14s1.577-2.469.319-4.524c-1.258-2.056-4.842-2.087-4.842-2.087l-13.328.072" stroke="#FE60B7" stroke-width="1.5" stroke-linecap="round"/><path d="M13.945 31.163s2.63 4.234 2.76 4.416c.36.51 1.878 2.407 3.91 2.213 2.399-.23 3.918-3.565 3.918-3.565l6.311-12.636" stroke="#A072FD" stroke-width="1.5" stroke-linecap="round"/></svg>